<?xml version="1.0" encoding="UTF-8" standalone="no"?>
<svg
   width="100%"
   height="484"
   viewBox="0 0 1200 484"
   fill="none"
   version="1.1"
   id="svg3564"
   sodipodi:docname="img-1-copy.svg"
   inkscape:version="1.1.2 (b8e25be833, 2022-02-05)"
   xmlns:inkscape="http://www.inkscape.org/namespaces/inkscape"
   xmlns:sodipodi="http://sodipodi.sourceforge.net/DTD/sodipodi-0.dtd"
   xmlns="http://www.w3.org/2000/svg"
   xmlns:svg="http://www.w3.org/2000/svg">
  <defs
     id="defs3568" />
  <sodipodi:namedview
     id="namedview3566"
     pagecolor="#ffffff"
     bordercolor="#666666"
     borderopacity="1.0"
     inkscape:pageshadow="2"
     inkscape:pageopacity="0.0"
     inkscape:pagecheckerboard="0"
     showgrid="false"
     inkscape:zoom="0.5"
     inkscape:cx="570"
     inkscape:cy="253"
     inkscape:window-width="1366"
     inkscape:window-height="706"
     inkscape:window-x="-8"
     inkscape:window-y="-8"
     inkscape:window-maximized="1"
     inkscape:current-layer="design-final 1" />
  <g
     id="design-final 1"
     style="display:inline"
     inkscape:groupmode="layer">
    <g
       id="Group_130"
       style="display:inline"
       inkscape:label="cloud_5">
      <path
         id="Vector_120"
         d="m 835.954,106.688 c 1.508,0.485 3.148,0.485 4.746,0.485 l 20.324,-0.223 c 2.425,0 5.142,-0.199 6.658,-2.066 2.599,-3.192 -0.828,-7.9888 -4.041,-9.1192 -0.879,-0.2998 -1.807,-0.4182 -2.725,-0.3462 -0.928,0.0721 -1.823,0.3313 -2.643,0.7636 -0.703,-1.263 -1.738,-2.3089 -2.989,-3.0211 -1.259,-0.7131 -2.683,-1.0659 -4.132,-1.0187 -1.989,0.0696 -3.918,0.7222 -5.541,1.8766 -0.703,0.5433 -1.284,1.2298 -1.698,2.0133 -0.115,0.2128 -0.976,2.1192 -0.67,2.26 -2.916,-1.455 -7.537,-0.9706 -9.632,1.7019 -1.98,2.5368 -0.497,5.7238 2.343,6.6938 z"
         fill="#ffffff" />
      <path
         id="Vector_121"
         d="m 835.954,106.688 c 1.508,0.485 3.148,0.485 4.746,0.485 l 20.324,-0.223 c 2.425,0 5.142,-0.199 6.658,-2.066 2.599,-3.192 -0.828,-7.9888 -4.041,-9.1192 -0.879,-0.2998 -1.807,-0.4182 -2.725,-0.3462 -0.928,0.0721 -1.823,0.3313 -2.643,0.7636 -0.703,-1.263 -1.738,-2.3089 -2.989,-3.0211 -1.259,-0.7131 -2.683,-1.0659 -4.132,-1.0187 -1.989,0.0696 -3.918,0.7222 -5.541,1.8766 -0.703,0.5433 -1.284,1.2298 -1.698,2.0133 -0.115,0.2128 -0.976,2.1192 -0.67,2.26 -2.916,-1.455 -7.537,-0.9706 -9.632,1.7019 -1.98,2.5368 -0.497,5.7238 2.343,6.6938 z"
         stroke="#526ade"
         stroke-width="1.44928"
         stroke-linecap="round"
         stroke-linejoin="round" />
    </g>
    <g
       id="Group_131"
       style="display:inline"
       inkscape:label="cloud_2">
      <path
         id="Vector_122"
         d="m 265.129,135.106 c 1.518,0.484 3.153,0.485 4.748,0.485 l 20.323,-0.219 c 2.425,-0.029 5.142,-0.203 6.664,-2.071 2.599,-3.187 -0.829,-7.988 -4.044,-9.118 -0.875,-0.301 -1.803,-0.42 -2.726,-0.347 -0.923,0.073 -1.821,0.334 -2.638,0.769 -0.7,-1.266 -1.735,-2.313 -2.992,-3.027 -1.257,-0.713 -2.687,-1.066 -4.132,-1.018 -1.99,0.07 -3.915,0.724 -5.538,1.877 -0.703,0.544 -1.283,1.23 -1.702,2.014 -0.111,0.212 -0.945,2.119 -0.67,2.26 -2.909,-1.456 -7.54,-0.972 -9.635,1.706 -1.974,2.522 -0.49,5.733 2.342,6.689 z"
         fill="#ffffff" />
      <path
         id="Vector_123"
         d="m 265.129,135.106 c 1.518,0.484 3.153,0.485 4.748,0.485 l 20.323,-0.219 c 2.425,-0.029 5.142,-0.203 6.664,-2.071 2.599,-3.187 -0.829,-7.988 -4.044,-9.118 -0.875,-0.301 -1.803,-0.42 -2.726,-0.347 -0.923,0.073 -1.821,0.334 -2.638,0.769 -0.7,-1.266 -1.735,-2.313 -2.992,-3.027 -1.257,-0.713 -2.687,-1.066 -4.132,-1.018 -1.99,0.07 -3.915,0.724 -5.538,1.877 -0.703,0.544 -1.283,1.23 -1.702,2.014 -0.111,0.212 -0.945,2.119 -0.67,2.26 -2.909,-1.456 -7.54,-0.972 -9.635,1.706 -1.974,2.522 -0.49,5.733 2.342,6.689 z"
         stroke="#526ade"
         stroke-width="1.44928"
         stroke-linecap="round"
         stroke-linejoin="round" />
    </g>
    <g
       id="Group_132"
       style="display:inline"
       inkscape:label="cloud_4">
      <path
         id="Vector_124"
         d="m 711.692,110.272 c 0.84,0.934 2.009,1.508 3.261,1.601 2.77,0.315 5.69,-0.126 8.508,0.082 3.08,0.223 13.016,1.581 11.318,-4.243 -0.164,-0.579 -0.469,-1.107 -0.889,-1.538 -0.419,-0.431 -0.939,-0.752 -1.513,-0.932 -0.577,-0.164 -1.189,-0.152 -1.76,0.033 -0.572,0.184 -1.076,0.535 -1.449,1.006 -0.075,-0.491 -0.282,-0.953 -0.6,-1.334 -0.318,-0.381 -0.734,-0.668 -1.203,-0.829 -0.471,-0.135 -0.967,-0.148 -1.443,-0.039 -0.477,0.108 -0.918,0.335 -1.284,0.659 -1.498,-1.3 -2.56,-2.6 -4.766,-2.517 -2.449,0.097 -3.943,1.91 -3.881,4.592 -1.939,-2.26 -3.5,-1.26 -4.364,-0.295 -0.863,0.965 -0.79,2.56 0,3.608 z"
         fill="#ffffff" />
      <path
         id="Vector_125"
         d="m 711.692,110.272 c 0.84,0.934 2.009,1.508 3.261,1.601 2.77,0.315 5.69,-0.126 8.508,0.082 3.08,0.223 13.016,1.581 11.318,-4.243 -0.164,-0.579 -0.469,-1.107 -0.889,-1.538 -0.419,-0.431 -0.939,-0.752 -1.513,-0.932 -0.577,-0.164 -1.189,-0.152 -1.76,0.033 -0.572,0.184 -1.076,0.535 -1.449,1.006 -0.075,-0.491 -0.282,-0.953 -0.6,-1.334 -0.318,-0.381 -0.734,-0.668 -1.203,-0.829 -0.471,-0.135 -0.967,-0.148 -1.443,-0.039 -0.477,0.108 -0.918,0.335 -1.284,0.659 -1.498,-1.3 -2.56,-2.6 -4.766,-2.517 -2.449,0.097 -3.943,1.91 -3.881,4.592 -1.939,-2.26 -3.5,-1.26 -4.364,-0.295 -0.863,0.965 -0.79,2.56 0,3.608 z"
         stroke="#526ade"
         stroke-width="1.44928"
         stroke-linecap="round"
         stroke-linejoin="round" />
    </g>
    <g
       id="Group_133"
       style="display:inline"
       inkscape:label="cloud_1">
      <path
         id="Vector_126"
         d="m 177.004,177.617 c -0.843,0.933 -2.011,1.508 -3.264,1.605 -2.77,0.311 -5.689,-0.131 -8.511,0.078 -3.08,0.228 -13.012,1.581 -11.314,-4.244 0.166,-0.581 0.475,-1.11 0.899,-1.54 0.423,-0.431 0.948,-0.748 1.526,-0.924 1.731,-0.492 3.344,0.886 4.441,2.088 0.318,-2.042 2.193,-3.73 4.256,-3.833 2.063,-0.103 4.097,1.391 4.616,3.391 0.792,-1.206 2.198,-1.984 3.64,-2.012 2.61,-0.053 5.782,2.608 3.797,5.251 z"
         fill="#ffffff" />
      <path
         id="Vector_127"
         d="m 177.004,177.617 c -0.843,0.933 -2.011,1.508 -3.264,1.605 -2.77,0.311 -5.689,-0.131 -8.511,0.078 -3.08,0.228 -13.012,1.581 -11.314,-4.244 0.166,-0.581 0.475,-1.11 0.899,-1.54 0.423,-0.431 0.948,-0.748 1.526,-0.924 1.731,-0.492 3.344,0.886 4.441,2.088 0.318,-2.042 2.193,-3.73 4.256,-3.833 2.063,-0.103 4.097,1.391 4.616,3.391 0.792,-1.206 2.198,-1.984 3.64,-2.012 2.61,-0.053 5.782,2.608 3.797,5.251 z"
         stroke="#526ade"
         stroke-width="1.44928"
         stroke-linecap="round"
         stroke-linejoin="round" />
    </g>
    <g
       id="Group"
       style="display:inline">
      <g
         id="Group_18">
        <g
           id="Group_19">
          <path
             id="Vector_17"
             d="m 1014.01,274.701 c -4.6,-1.61 -9.17,-3.283 -13.72,-5.057 -4.177,-1.625 -8.51,-2.91 -12.584,-4.778 l -3.66,-1.609 h -0.034 c -0.935,-0.412 -1.945,-0.864 -2.972,-1.32 -2.883,-1.285 0.815,-1.328 0.351,-1.701 -10.293,-8.158 -18.933,-23.552 -25.924,-35.044 -3.176,-5.219 -6.666,-11.337 -9.333,-16.86 -5.441,-11.301 -13.725,-23.212 -20.176,-33.94 -5.938,-9.875 -13.167,-22.491 -25.623,-23.97 -1.398,-0.165 -3.155,-0.616 -4.555,-0.489 -15.469,1.396 -24.154,13.528 -39.586,21.546 -4.425,2.3 -7.449,2.662 -12.077,0.805 -10.345,-4.031 -14.671,-13.555 -20.814,-22.344 -8.201,-11.722 -15.272,-26.268 -26.479,-35.435 -1.281,-1.051 -2.639,-2.003 -4.063,-2.852 -5.523,-3.303 -12.036,-4.99 -18.234,-3.526 -8.453,1.994 -14.602,9.273 -18.943,16.797 -4.34,7.522 -7.599,15.797 -13.374,22.282 -0.316,0.354 -0.636,0.703 -0.969,1.042 -5.364,5.535 -13.374,10.417 -21.272,10.549 -7.843,0.13 -14.878,0.783 -21.957,-3.456 -6.342,-3.798 -11.176,-9.63 -15.638,-15.524 C 663.761,115.227 652.691,86.1963 633.57,62.0853 626.674,53.3896 619.727,47.0534 610.615,43.8766 h -0.058 c -2.655,-0.9143 -5.436,-1.4037 -8.244,-1.4542 h -0.388 -1.992 -0.073 c -13.12,0.5416 -21.678,5.9246 -30.469,13.4352 -1.292,1.1039 -2.222,2.6956 -3.331,4.1896 -6.557,8.8422 -13.012,20.901 -17.943,31.9826 -2.212,4.9574 -4.122,9.7002 -5.606,13.9152 v 0.034 c -2.085,5.763 -4.646,11.34 -7.654,16.679 l -0.073,0.136 c -3.233,5.844 -7.063,11.336 -11.429,16.389 l -0.116,0.127 c -0.922,1.048 -1.863,2.046 -2.813,2.982 -1.199,1.175 -2.462,2.283 -3.783,3.318 -2.761,2.183 -5.74,4.121 -8.898,5.679 -3.305,1.633 -5.112,1.689 -8.094,-0.734 -7.145,-5.806 -13.898,-12.093 -20.198,-18.806 -3.041,-3.24 -6.31,-6.537 -9.65,-9.428 -3.362,-2.91 -6.245,-6.614 -9.574,-9.61 -9.869,-8.881 -17.071,-19.5466 -30.305,-18.5429 -0.864,0.0663 -1.721,0.1979 -2.566,0.3934 -7.171,1.6149 -14.063,7.4595 -19.009,12.7995 -0.067,0.068 -0.131,0.14 -0.194,0.208 -5.567,6.029 -9.519,13.335 -13.409,20.561 -3.321,6.175 -6.683,12.417 -10.479,18.319 -3.455,5.503 -7.499,10.613 -12.057,15.244 -0.873,0.873 -1.771,1.722 -2.695,2.546 -11.019,9.812 -23.663,18.181 -37.605,13.355 -1.955,-0.692 -7.059,-4.137 -8.888,-5.114 -8.972,-4.71 -17.088,-11.913 -27.078,-11.805 -0.954,0.01 -1.906,0.09 -2.847,0.238 -6.145,0.97 -10.695,5.157 -14.886,9.848 -4.849,5.403 -11.438,12.694 -14.604,19.213 -0.068,0.135 -0.13,0.277 -0.199,0.413 -6.203,12.78 -14.018,26.968 -20.629,39.452 -8.301,15.575 -16.624,29.757 -34.124,40.533 -2.492,1.534 -4.884,3.231 -7.418,4.697 -1.249,0.723 -2.542,1.441 -3.891,1.963 -1.188,0.46 -2.103,0.401 -2.643,1.758 -0.248,0.621 -0.331,1.296 -0.397,1.962 -0.505,5.025 -0.391,9.978 0.627,14.923 0.334,2.013 0.773,4.008 1.315,5.976 0.303,1.041 0.77,2.028 1.382,2.924 0.621,0.783 1.394,1.432 2.274,1.906 1.067,0.625 2.245,1.13 3.23,1.654 11.639,6.195 25.217,6.466 38.083,6.688 h 1.053 l 50.647,0.878 44.058,0.762 92.542,1.6 32.045,0.552 36.076,-0.76 c 25.101,-0.53 50.207,-1.133 75.322,-1.804 l 13.863,0.316 c 29.672,0.672 59.34,1.317 89.003,1.938 l 25.896,0.485 101.441,1.94 80.602,1.529 c 1.416,0.028 2.831,0.028 4.256,0 h 0.033 c 0.887,0 1.773,-0.044 2.65,-0.073 8.407,-0.281 16.803,-1.219 25.242,-1.878 0,0 2.34,-0.176 2.385,-0.179 19.247,-1.451 39.244,-3.806 57.412,-10.931 9.059,-3.552 17.492,-8.5 25.557,-13.908 3.88,-2.604 7.57,-5.429 11.26,-8.229 1.6,-1.212 11.55,-8.923 13.13,-8.4 -3.92,-1.291 -7.81,-2.604 -11.68,-3.96 z"
             fill="#00b8cd" />
        </g>
        <g
           id="Group_20">
          <path
             id="Vector_18"
             d="m 325.264,174.012 c -6.867,-4.951 -15.52,-9.81 -23.599,-12.536 -1.455,-0.485 -2.273,-0.432 -4.363,-0.625 -3.473,-0.326 5.446,2.271 8.308,4.038 9.65,5.96 10.585,7.641 14.493,13.355 4.819,7.078 5.834,12.312 9.932,17.724 3.872,5.234 8.306,7.542 12.253,9.123 3.947,1.581 8.685,1.392 12.935,1.238 4.989,-0.214 11.504,-3.726 12.463,-8.629 0.549,-2.799 0.017,-5.926 -2.102,-7.827 -2.91,-2.614 -7.868,-3.002 -11.82,-2.541 -0.669,0.118 -1.352,0.139 -2.028,0.063 -0.337,-0.041 -0.659,-0.164 -0.939,-0.357 -0.279,-0.193 -0.509,-0.453 -0.666,-0.753 -0.432,-1 0.984,-2.326 1.958,-2.782 1.86,-0.859 3.607,-1.512 5.343,-2.181 1.737,-0.669 4.185,-1.795 5.567,-3.036 3.074,-2.751 0.92,-8.73 -4.192,-5.82 -5.111,2.91 -10.362,4.975 -16.08,5.8 -3.176,0.461 -5.272,0.495 -8.565,-0.32 -3.189,-0.732 -6.209,-2.068 -8.898,-3.934 z"
             fill="#0099c4" />
        </g>
        <g
           id="Group_21">
          <path
             id="Vector_19"
             d="m 523.481,167.314 c -4.852,-2.368 -9.4,-5.312 -13.546,-8.768 -2.618,-2.178 -4.713,-4.851 -7.501,-6.718 -3.082,-2.136 -5.976,-4.531 -8.652,-7.159 -4.238,-4.04 -11.426,-10.25 -16.841,-15.094 -7.086,-7.859 -9.444,-10.059 -14.424,-14.512 -5.455,-4.849 -10.543,-10.239 -16.488,-14.512 -2.066,-1.4794 -16.919,-11.2525 -15.149,-2.0566 0.485,2.5756 2.865,4.2786 4.955,5.8546 4.705,3.548 8.548,5.691 12.218,10.301 2.668,3.319 2.925,6.213 2.21,7.968 -1.843,4.467 -6.639,2.501 -9.838,4.513 -2.331,1.48 -1.849,5.034 0.51,7.675 2.001,2.259 8.019,4.652 10.598,5.651 7.022,2.721 15.656,3.443 19.318,10.025 0.604,1.022 0.939,2.183 0.97,3.371 -0.044,4.807 -10.335,5.403 -13.498,10.253 -2.929,4.505 1.623,9.781 5.541,12.284 3.918,2.502 12.736,3.589 17.222,4.821 6.389,1.765 10.098,4.758 15.34,8.813 2.512,1.94 4.972,4.751 7.882,6.031 2.909,1.281 6.586,1.455 9.03,-0.596 2.993,-2.489 -0.912,-6.734 1.007,-11.406 1.846,-4.485 5.332,-6.301 8.532,-6.425 3.961,-0.123 7.498,-0.774 10.846,-2.122 0.877,-0.344 2.598,-1.763 2.555,-2.573 -0.063,-1.183 -4.432,-2.262 -5.553,-2.65 -2.471,-0.846 -4.89,-1.838 -7.244,-2.969 z"
             fill="#0099c4" />
        </g>
        <g
           id="Group_22">
          <path
             id="Vector_20"
             d="m 972.807,257.275 c 0.465,-0.935 0.357,-2.308 -0.596,-4.3 -6.368,-13.325 -20.852,-34.025 -28.008,-46.946 -7.876,-14.177 -16.008,-29.203 -25.466,-42.406 -3.37,-4.695 -6.343,-6.305 -10.484,-9.909 -1.226,-1.056 -4.804,-2.623 -6.386,-2.943 -1.59,-0.321 -3.108,0.074 -3.431,1.665 -0.323,1.59 0.894,2.871 2.004,3.947 4.017,3.881 8.246,7.364 11.948,11.549 2.758,3.134 6.053,7.22 5.1,11.29 -1.168,4.971 -8.176,10.063 -7.298,15.093 0.538,3.123 3.305,5.089 6.179,6.378 3.494,1.572 8.454,2.179 12.131,3.26 3.678,1.082 7.53,2.476 10.063,5.347 2.526,2.871 3.165,7.173 1.202,10.458 -1.69,2.807 -5.599,4.59 -7.363,7.345 -1.226,1.906 -1.921,4.282 -1.714,6.533 0.331,3.68 2.139,7.742 5.185,9.788 5.975,4.005 12.59,6.318 19.702,7.465 8.739,1.632 16.056,8.739 17.232,6.386 z"
             fill="#0099c4" />
        </g>
        <g
           id="Group_23">
          <path
             id="Vector_21"
             d="m 837.727,168.537 c -5.6,-5.236 -9.691,-11.439 -14.346,-17.476 -5.757,-7.449 -10.32,-15.734 -15.796,-23.386 -2.674,-3.841 -5.702,-7.421 -9.043,-10.695 -1.71,-1.646 -3.542,-3.159 -5.481,-4.525 -1.94,-1.363 -11.886,-8.548 -13.526,-4.667 -0.668,1.592 0.537,2.757 1.851,3.88 1.315,1.127 4.166,1.622 5.533,2.68 1.367,1.058 2.498,2.928 2.086,4.601 -0.359,1.456 -3.203,3.118 -3.62,4.573 -0.704,2.382 1.455,4.555 3.418,6.091 5.474,4.285 10.943,6.084 15.815,11.076 2.471,2.529 6.601,7.311 8.83,10.048 2.21,2.664 4.757,6.79 2.25,9.136 -1.158,1.083 -3.755,1.666 -5.335,1.653 -2.181,-0.04 -4.352,0.408 -5.497,1.506 -1.314,1.26 -1.616,3.313 -1.172,5.081 0.443,1.766 1.518,3.302 2.651,4.728 5.924,7.454 12.937,11.656 21.35,15.956 3.328,1.7 6.961,3.334 10.499,4.573 2.261,0.794 8.013,2.911 9.941,0.927 0.849,-0.875 1.214,-2.099 1.53,-3.276 0.315,-1.178 0.633,-2.405 1.422,-3.335 1.311,-1.543 3.488,-2.523 5.484,-2.343 2.689,0.288 4.583,-0.019 4.893,-2.02 0.206,-1.322 0.353,-2.317 -0.673,-3.175 -1.027,-0.859 -3.1,-0.536 -4.354,-1 -4.267,-1.576 -8.844,-4.04 -12.989,-5.912 -1.059,-0.479 -4.653,-3.7 -5.721,-4.699 z"
             fill="#0099c4" />
        </g>
        <g
           id="Group_24">
          <path
             id="Vector_22"
             d="m 701.531,158.662 c -2.313,-1.508 -4.898,-3.88 -6.839,-5.627 -4.647,-4.212 -8.891,-8.849 -12.676,-13.852 -4.568,-5.97 -9.374,-12.722 -12.633,-19.541 l -8.796,-14.547 -12.614,-22.1012 c -4.059,-6.1789 -7.997,-12.4646 -12.429,-18.3917 -4.433,-5.9272 -9.287,-11.5628 -15.258,-15.8651 -3.161,-2.279 -14.419,-10.0596 -17.721,-4.6418 -0.674,1.1064 -0.607,2.5499 -0.091,3.7383 0.515,1.1884 1.426,2.1607 2.395,3.0203 2.863,2.54 6.33,4.2982 9.35,6.6493 3.019,2.3511 6.531,4.7445 6.742,9.6684 0.228,5.3054 -3.008,7.5101 -5.051,11.0662 -2.603,4.5308 -4.631,9.5345 -4.809,14.7577 -0.144,4.14 0.995,8.4206 3.568,11.7116 0.992,1.268 1.899,2.847 3.13,3.884 1.808,1.525 12.648,7.402 14.765,8.415 9.621,4.603 13.723,6.348 20.131,12.713 4.056,4.051 5.072,7.394 5.461,12.239 0.484,6.354 -5.755,12.542 -10.125,17.179 -1.392,1.479 -2.769,3.133 -3.099,5.136 -0.848,5.161 4.672,9.656 9.724,10.889 17.297,3.812 15.229,8.396 19.853,16.631 1.416,2.536 3.364,6.142 5.591,8.009 2.226,1.868 5.819,2.513 7.948,0.529 1.401,-1.309 1.786,-3.341 2.26,-5.204 1.633,-6.352 3.322,-12.031 9.302,-14.547 5.157,-2.065 8.592,-5.462 10.93,-8.838 2.337,-3.375 0.762,-5.892 -2.337,-8.584 -2.138,-1.804 -4.31,-2.949 -6.672,-4.496 z"
             fill="#0099c4" />
        </g>
        <g
           id="Group_25">
          <path
             id="Vector_23"
             d="m 213.663,266.031 c 28.806,-17.238 39.693,-68.703 61.054,-91.572 5.762,-6.16 11.959,-13.052 20.367,-13.857 8.788,-0.844 16.706,4.753 24.248,9.385 7.541,4.632 11.061,9.7 23.427,7.998"
             stroke="#526ade"
             stroke-width="1.44928"
             stroke-linecap="round"
             stroke-linejoin="round" />
        </g>
        <g
           id="Group_26">
          <path
             id="Vector_24"
             d="m 342.725,177.985 c 13.875,-1.154 24.573,-9.953 32.933,-20.278 7.346,-9.065 14.023,-18.652 19.98,-28.684 5.557,-9.357 9.184,-18.95 17.191,-26.798 7.662,-7.5078 17.313,-10.2192 27.337,-5.6213 4.005,1.8435 7.366,4.8113 10.669,7.7603 12.676,11.272 25.474,24.853 38.15,36.129 10.509,9.341 20.217,17.781 31.744,25.832 7.537,5.263 17.338,7.867 25.155,5.655"
             stroke="#526ade"
             stroke-width="1.44928"
             stroke-linecap="round"
             stroke-linejoin="round" />
        </g>
        <g
           id="Group_27">
          <path
             id="Vector_25"
             d="m 503.699,153.249 c 10.735,-4.039 21.244,-14.851 26.862,-23.582 7.847,-12.193 12.546,-26.079 18.118,-39.4608 5.573,-13.3814 12.357,-26.7387 23.249,-36.299 10.892,-9.5594 26.754,-14.6426 40.25,-9.4186 8.831,3.3946 15.577,10.617 21.628,17.8923 11.741,14.1143 38.743,64.8811 45.819,74.6921 11.738,15.622 25.6,26.944 37.098,30.722"
             stroke="#526ade"
             stroke-width="1.44928"
             stroke-linecap="round"
             stroke-linejoin="round" />
        </g>
        <g
           id="Group_28">
          <path
             id="Vector_26"
             d="m 695.814,154.781 c 25.501,11.409 41.682,-1.43 47.147,-8.832 5.466,-7.401 8.792,-16.175 13.88,-23.843 5.087,-7.668 12.817,-14.551 22.012,-14.86 8.675,-0.292 16.464,5.335 22.341,11.717 10.014,10.899 16.527,24.494 25.169,36.513 8.639,12.018 20.614,23.037 35.322,24.672"
             stroke="#526ade"
             stroke-width="1.44928"
             stroke-linecap="round"
             stroke-linejoin="round" />
        </g>
        <g
           id="Group_29">
          <path
             id="Vector_27"
             d="m 841.37,171.38 c 12.018,4.608 22.544,-3.216 29.947,-9.07 7.404,-5.854 15.379,-12.446 24.82,-12.378 6.079,0.044 11.859,2.974 16.422,6.995 4.564,4.02 8.066,9.084 11.42,14.157 16.704,25.25 32.158,57.576 48.447,81.109"
             stroke="#526ade"
             stroke-width="1.44928"
             stroke-linecap="round"
             stroke-linejoin="round" />
        </g>
      </g>
      <g
         id="Group_30">
        <g
           id="Group_31">
          <path
             id="Vector_28"
             d="m 383.33,202.474 c -0.349,-0.728 -1.406,-2.973 -1.425,-2.91 -0.282,0.8 -0.902,2.085 -1.247,3.021"
             stroke="#526ade"
             stroke-width="1.44928"
             stroke-linecap="round"
             stroke-linejoin="round" />
        </g>
        <g
           id="Group_32">
          <path
             id="Vector_29"
             d="m 379.403,208.118 c -0.716,-1.134 -1.498,-2.227 -2.338,-3.272 -0.224,1.154 -0.643,2.26 -1.241,3.272"
             stroke="#526ade"
             stroke-width="1.44928"
             stroke-linecap="round"
             stroke-linejoin="round" />
        </g>
        <g
           id="Group_33">
          <path
             id="Vector_30"
             d="m 326.025,201.877 c -0.902,-1.12 -0.893,-2.376 -1.912,-3.394 -0.428,1.158 -0.994,2.261 -1.687,3.283"
             stroke="#526ade"
             stroke-width="1.44928"
             stroke-linecap="round"
             stroke-linejoin="round" />
        </g>
        <g
           id="Group_34">
          <path
             id="Vector_31"
             d="m 388.359,163.92 c -0.645,-1.068 -1.334,-2.11 -2.066,-3.119 -0.237,1.209 -0.651,2.378 -1.227,3.468"
             stroke="#526ade"
             stroke-width="1.44928"
             stroke-linecap="round"
             stroke-linejoin="round" />
        </g>
        <g
           id="Group_35">
          <path
             id="Vector_32"
             d="m 369.544,206.32 c -0.267,-0.65 -1.13,-2.159 -1.712,-2.551 -0.219,0.894 -0.504,1.771 -0.854,2.624"
             stroke="#526ade"
             stroke-width="1.44928"
             stroke-linecap="round"
             stroke-linejoin="round" />
        </g>
        <g
           id="Group_36">
          <path
             id="Vector_33"
             d="m 393.592,175.336 c -0.568,-1.04 -1.209,-2.04 -1.916,-2.991 -0.266,1.072 -0.727,2.086 -1.362,2.991"
             stroke="#526ade"
             stroke-width="1.44928"
             stroke-linecap="round"
             stroke-linejoin="round" />
        </g>
        <g
           id="Group_37">
          <path
             id="Vector_34"
             d="m 351.077,184.498 c -0.303,-0.616 -0.723,-1.166 -1.237,-1.619 -0.231,0.605 -0.517,1.187 -0.854,1.74"
             stroke="#526ade"
             stroke-width="1.44928"
             stroke-linecap="round"
             stroke-linejoin="round" />
        </g>
        <g
           id="Group_38">
          <path
             id="Vector_35"
             d="m 362.027,205.713 c -0.465,-0.809 -1.094,-1.513 -1.848,-2.066 -0.087,-0.058 -1.087,1.941 -1.455,2.023"
             stroke="#526ade"
             stroke-width="1.44928"
             stroke-linecap="round"
             stroke-linejoin="round" />
        </g>
        <g
           id="Group_39">
          <path
             id="Vector_36"
             d="m 338.823,189.188 c -0.471,-1.001 -1.065,-1.941 -1.766,-2.798 -0.315,1.125 -0.826,2.186 -1.508,3.134"
             stroke="#526ade"
             stroke-width="1.44928"
             stroke-linecap="round"
             stroke-linejoin="round" />
        </g>
        <g
           id="Group_40">
          <path
             id="Vector_37"
             d="m 376.532,180.409 c -0.568,-1.163 -1.351,-2.208 -2.309,-3.079 -0.42,0.781 -0.781,1.592 -1.082,2.426"
             stroke="#526ade"
             stroke-width="1.44928"
             stroke-linecap="round"
             stroke-linejoin="round" />
        </g>
        <g
           id="Group_41">
          <path
             id="Vector_38"
             d="m 390.532,149.505 c -0.316,-0.876 -0.811,-1.676 -1.455,-2.348 l -1.096,2.839"
             stroke="#526ade"
             stroke-width="1.44928"
             stroke-linecap="round"
             stroke-linejoin="round" />
        </g>
        <g
           id="Group_42">
          <path
             id="Vector_39"
             d="m 342.725,203.662 c -0.174,-0.79 -0.535,-1.525 -1.051,-2.148 l -1.014,1.992"
             stroke="#526ade"
             stroke-width="1.44928"
             stroke-linecap="round"
             stroke-linejoin="round" />
        </g>
        <g
           id="Group_43">
          <path
             id="Vector_40"
             d="m 383.263,187.079 -1.562,-2.909 c -0.117,-0.223 -0.349,-0.485 -0.572,-0.364 -0.071,0.049 -0.129,0.116 -0.165,0.194 l -1.562,2.619"
             stroke="#526ade"
             stroke-width="1.44928"
             stroke-linecap="round"
             stroke-linejoin="round" />
        </g>
        <g
           id="Group_44">
          <path
             id="Vector_41"
             d="m 375.824,189.189 -1.139,-2.464 -1.194,2.013"
             stroke="#526ade"
             stroke-width="1.44928"
             stroke-linecap="round"
             stroke-linejoin="round" />
        </g>
        <g
           id="Group_45">
          <path
             id="Vector_42"
             d="m 366.203,189.188 c -0.331,-0.907 -0.754,-1.777 -1.261,-2.599 -0.087,-0.14 -0.205,-0.296 -0.37,-0.286 -0.124,0.029 -0.232,0.104 -0.3,0.213 -0.345,0.436 -1.048,2.24 -1.397,2.672"
             stroke="#526ade"
             stroke-width="1.44928"
             stroke-linecap="round"
             stroke-linejoin="round" />
        </g>
        <g
           id="Group_46">
          <path
             id="Vector_43"
             d="m 362.026,179.042 -1.323,-2.677 c -0.054,-0.102 -0.127,-0.223 -0.243,-0.218 -0.116,0.005 -0.155,0.077 -0.208,0.14 -0.548,0.67 -1.247,1.941 -1.79,2.585"
             stroke="#526ade"
             stroke-width="1.44928"
             stroke-linecap="round"
             stroke-linejoin="round" />
        </g>
        <g
           id="Group_47">
          <path
             id="Vector_44"
             d="m 378.913,169.255 -1.508,-2.833 c -0.647,0.9 -1.381,1.734 -2.193,2.488"
             stroke="#526ade"
             stroke-width="1.44928"
             stroke-linecap="round"
             stroke-linejoin="round" />
        </g>
      </g>
      <g
         id="Group_48">
        <g
           id="Group_49">
          <path
             id="Vector_45"
             d="m 570.205,180.409 c -0.35,-0.732 -1.408,-2.972 -1.427,-2.909 -0.281,0.801 -0.902,2.085 -1.247,3.022"
             stroke="#526ade"
             stroke-width="1.44928"
             stroke-linecap="round"
             stroke-linejoin="round" />
        </g>
        <g
           id="Group_50">
          <path
             id="Vector_46"
             d="m 566.277,186.041 c -0.718,-1.134 -1.498,-2.227 -2.338,-3.272 -0.224,1.154 -0.644,2.26 -1.242,3.272"
             stroke="#526ade"
             stroke-width="1.44928"
             stroke-linecap="round"
             stroke-linejoin="round" />
        </g>
        <g
           id="Group_51">
          <path
             id="Vector_47"
             d="m 573.877,185.038 c -0.902,-1.126 -0.893,-2.382 -1.911,-3.396 -0.429,1.157 -0.996,2.258 -1.689,3.279"
             stroke="#526ade"
             stroke-width="1.44928"
             stroke-linecap="round"
             stroke-linejoin="round" />
        </g>
        <g
           id="Group_52">
          <path
             id="Vector_48"
             d="m 562.086,177.277 c -0.645,-1.067 -1.333,-2.11 -2.07,-3.119 -0.234,1.211 -0.645,2.379 -1.223,3.468"
             stroke="#526ade"
             stroke-width="1.44928"
             stroke-linecap="round"
             stroke-linejoin="round" />
        </g>
        <g
           id="Group_53">
          <path
             id="Vector_49"
             d="m 556.418,184.242 c -0.266,-0.65 -1.129,-2.158 -1.712,-2.556 -0.215,0.898 -0.501,1.776 -0.853,2.629"
             stroke="#526ade"
             stroke-width="1.44928"
             stroke-linecap="round"
             stroke-linejoin="round" />
        </g>
        <g
           id="Group_54">
          <path
             id="Vector_50"
             d="m 580.47,153.249 c -0.576,-1.041 -1.224,-2.04 -1.939,-2.991 -0.265,1.073 -0.726,2.086 -1.363,2.991"
             stroke="#526ade"
             stroke-width="1.44928"
             stroke-linecap="round"
             stroke-linejoin="round" />
        </g>
        <g
           id="Group_55">
          <path
             id="Vector_51"
             d="m 537.956,162.421 c -0.305,-0.616 -0.726,-1.166 -1.241,-1.62 -0.231,0.605 -0.517,1.188 -0.854,1.741"
             stroke="#526ade"
             stroke-width="1.44928"
             stroke-linecap="round"
             stroke-linejoin="round" />
        </g>
        <g
           id="Group_56">
          <path
             id="Vector_52"
             d="m 548.911,183.635 c -0.463,-0.812 -1.092,-1.516 -1.848,-2.066 -0.082,-0.063 -1.086,1.941 -1.455,2.023"
             stroke="#526ade"
             stroke-width="1.44928"
             stroke-linecap="round"
             stroke-linejoin="round" />
        </g>
        <g
           id="Group_57">
          <path
             id="Vector_53"
             d="m 543.775,178.693 c -0.472,-1.004 -1.066,-1.945 -1.77,-2.802 -0.314,1.124 -0.822,2.184 -1.503,3.132"
             stroke="#526ade"
             stroke-width="1.44928"
             stroke-linecap="round"
             stroke-linejoin="round" />
        </g>
        <g
           id="Group_58">
          <path
             id="Vector_54"
             d="m 584.617,171.898 c -0.564,-1.164 -1.349,-2.208 -2.309,-3.074 -0.418,0.781 -0.779,1.592 -1.081,2.425"
             stroke="#526ade"
             stroke-width="1.44928"
             stroke-linecap="round"
             stroke-linejoin="round" />
        </g>
        <g
           id="Group_59">
          <path
             id="Vector_55"
             d="m 534.871,179.925 c -0.318,-0.876 -0.813,-1.677 -1.454,-2.352 l -1.097,2.837"
             stroke="#526ade"
             stroke-width="1.44928"
             stroke-linecap="round"
             stroke-linejoin="round" />
        </g>
        <g
           id="Group_60">
          <path
             id="Vector_56"
             d="m 537.941,188.961 c -0.175,-0.79 -0.536,-1.526 -1.052,-2.149 l -1.013,1.994"
             stroke="#526ade"
             stroke-width="1.44928"
             stroke-linecap="round"
             stroke-linejoin="round" />
        </g>
        <g
           id="Group_61">
          <path
             id="Vector_57"
             d="m 570.137,165 -1.562,-2.934 c -0.117,-0.223 -0.35,-0.484 -0.573,-0.363 -0.071,0.048 -0.127,0.113 -0.164,0.189 l -1.562,2.624"
             stroke="#526ade"
             stroke-width="1.44928"
             stroke-linecap="round"
             stroke-linejoin="round" />
        </g>
        <g
           id="Group_62">
          <path
             id="Vector_58"
             d="m 562.699,167.111 -1.14,-2.468 -1.194,2.013"
             stroke="#526ade"
             stroke-width="1.44928"
             stroke-linecap="round"
             stroke-linejoin="round" />
        </g>
        <g
           id="Group_63">
          <path
             id="Vector_59"
             d="m 553.096,167.111 c -0.333,-0.907 -0.759,-1.779 -1.267,-2.6 -0.082,-0.141 -0.204,-0.296 -0.369,-0.286 -0.124,0.028 -0.232,0.105 -0.301,0.213 -0.343,0.437 -1.047,2.241 -1.396,2.673"
             stroke="#526ade"
             stroke-width="1.44928"
             stroke-linecap="round"
             stroke-linejoin="round" />
        </g>
        <g
           id="Group_64">
          <path
             id="Vector_60"
             d="m 548.906,156.964 -1.324,-2.677 c -0.049,-0.102 -0.126,-0.223 -0.243,-0.218 -0.116,0.005 -0.15,0.073 -0.209,0.14 -0.542,0.67 -1.245,1.916 -1.788,2.585"
             stroke="#526ade"
             stroke-width="1.44928"
             stroke-linecap="round"
             stroke-linejoin="round" />
        </g>
        <g
           id="Group_65">
          <path
             id="Vector_61"
             d="m 565.786,147.157 -1.508,-2.832 c -0.647,0.898 -1.381,1.732 -2.192,2.487"
             stroke="#526ade"
             stroke-width="1.44928"
             stroke-linecap="round"
             stroke-linejoin="round" />
        </g>
      </g>
      <g
         id="Group_66">
        <g
           id="Group_67">
          <path
             id="Vector_62"
             d="m 659.789,174.682 c 0.349,-0.733 1.406,-2.973 1.426,-2.909 0.282,0.8 0.903,2.085 1.247,3.021"
             stroke="#526ade"
             stroke-width="1.44928"
             stroke-linecap="round"
             stroke-linejoin="round" />
        </g>
        <g
           id="Group_68">
          <path
             id="Vector_63"
             d="m 663.717,180.329 c 0.717,-1.135 1.497,-2.228 2.337,-3.275 0.223,1.155 0.643,2.262 1.242,3.275"
             stroke="#526ade"
             stroke-width="1.44928"
             stroke-linecap="round"
             stroke-linejoin="round" />
        </g>
        <g
           id="Group_69">
          <path
             id="Vector_64"
             d="m 656.118,179.323 c 0.901,-1.124 0.897,-2.38 1.94,-3.393 0.423,1.157 0.99,2.259 1.684,3.278"
             stroke="#526ade"
             stroke-width="1.44928"
             stroke-linecap="round"
             stroke-linejoin="round" />
        </g>
        <g
           id="Group_70">
          <path
             id="Vector_65"
             d="m 666.932,172.364 c 0.655,-1.062 1.353,-2.1 2.09,-3.104 0.228,1.21 0.63,2.38 1.198,3.472"
             stroke="#526ade"
             stroke-width="1.44928"
             stroke-linecap="round"
             stroke-linejoin="round" />
        </g>
        <g
           id="Group_71">
          <path
             id="Vector_66"
             d="m 673.576,175.857 c 0.266,-0.655 1.129,-2.158 1.711,-2.556 0.219,0.897 0.503,1.775 0.855,2.629"
             stroke="#526ade"
             stroke-width="1.44928"
             stroke-linecap="round"
             stroke-linejoin="round" />
        </g>
        <g
           id="Group_72">
          <path
             id="Vector_67"
             d="m 674.7,166.797 c 0.403,-0.769 0.879,-1.496 1.421,-2.173 0.267,1.073 0.73,2.087 1.363,2.993"
             stroke="#526ade"
             stroke-width="1.44928"
             stroke-linecap="round"
             stroke-linejoin="round" />
        </g>
        <g
           id="Group_73">
          <path
             id="Vector_68"
             d="m 680.64,166.064 c 0.307,-0.614 0.729,-1.164 1.242,-1.62 0.231,0.607 0.516,1.192 0.853,1.747"
             stroke="#526ade"
             stroke-width="1.44928"
             stroke-linecap="round"
             stroke-linejoin="round" />
        </g>
        <g
           id="Group_74">
          <path
             id="Vector_69"
             d="m 681.083,177.922 c 0.464,-0.811 1.092,-1.515 1.847,-2.066 0.087,-0.063 1.086,1.941 1.454,2.023"
             stroke="#526ade"
             stroke-width="1.44928"
             stroke-linecap="round"
             stroke-linejoin="round" />
        </g>
        <g
           id="Group_75">
          <path
             id="Vector_70"
             d="m 686.219,172.981 c 0.473,-1.003 1.067,-1.944 1.769,-2.803 0.315,1.125 0.826,2.185 1.509,3.132"
             stroke="#526ade"
             stroke-width="1.44928"
             stroke-linecap="round"
             stroke-linejoin="round" />
        </g>
        <g
           id="Group_76">
          <path
             id="Vector_71"
             d="m 686.049,164.807 c 0.568,-1.162 1.35,-2.205 2.307,-3.075 0.422,0.781 0.784,1.591 1.087,2.425"
             stroke="#526ade"
             stroke-width="1.44928"
             stroke-linecap="round"
             stroke-linejoin="round" />
        </g>
        <g
           id="Group_77">
          <path
             id="Vector_72"
             d="m 695.127,174.198 c 0.317,-0.876 0.812,-1.678 1.455,-2.352 l 1.096,2.837"
             stroke="#526ade"
             stroke-width="1.44928"
             stroke-linecap="round"
             stroke-linejoin="round" />
        </g>
        <g
           id="Group_78">
          <path
             id="Vector_73"
             d="m 692.057,183.248 c 0.172,-0.79 0.532,-1.526 1.049,-2.148 l 1.012,1.993"
             stroke="#526ade"
             stroke-width="1.44928"
             stroke-linecap="round"
             stroke-linejoin="round" />
        </g>
        <g
           id="Group_79">
          <path
             id="Vector_74"
             d="m 659.09,157.614 1.557,-2.909 c 0.121,-0.223 0.349,-0.485 0.572,-0.364 0.074,0.046 0.132,0.111 0.169,0.189 l 1.563,2.624"
             stroke="#526ade"
             stroke-width="1.44928"
             stroke-linecap="round"
             stroke-linejoin="round" />
        </g>
        <g
           id="Group_80">
          <path
             id="Vector_75"
             d="m 665.235,160.616 1.139,-2.468 1.191,2.018"
             stroke="#526ade"
             stroke-width="1.44928"
             stroke-linecap="round"
             stroke-linejoin="round" />
        </g>
        <g
           id="Group_81">
          <path
             id="Vector_76"
             d="m 673.111,159.958 c 0.333,-0.908 0.756,-1.781 1.264,-2.605 0.082,-0.141 0.204,-0.295 0.369,-0.286 0.062,0.015 0.12,0.042 0.172,0.079 0.051,0.038 0.096,0.085 0.129,0.139 l 1.037,1.3"
             stroke="#526ade"
             stroke-width="1.44928"
             stroke-linecap="round"
             stroke-linejoin="round" />
        </g>
        <g
           id="Group_82">
          <path
             id="Vector_77"
             d="m 681.087,151.251 1.325,-2.676 c 0.052,-0.102 0.125,-0.224 0.242,-0.219 0.043,0.007 0.083,0.022 0.12,0.047 0.035,0.024 0.066,0.057 0.089,0.094 l 1.638,2.007"
             stroke="#526ade"
             stroke-width="1.44928"
             stroke-linecap="round"
             stroke-linejoin="round" />
        </g>
        <g
           id="Group_83">
          <path
             id="Vector_78"
             d="m 664.207,141.444 1.508,-2.832 c 0.649,0.899 1.382,1.733 2.192,2.488"
             stroke="#526ade"
             stroke-width="1.44928"
             stroke-linecap="round"
             stroke-linejoin="round" />
        </g>
      </g>
      <g
         id="Group_84">
        <g
           id="Group_85">
          <path
             id="Vector_79"
             d="m 823.827,234.66 c 0.349,-0.728 1.405,-2.969 1.425,-2.911 0.281,0.8 0.902,2.086 1.247,3.023"
             stroke="#526ade"
             stroke-width="1.44928"
             stroke-linecap="round"
             stroke-linejoin="round" />
        </g>
        <g
           id="Group_86">
          <path
             id="Vector_80"
             d="m 827.756,240.31 c 0.712,-1.137 1.491,-2.23 2.335,-3.275 0.225,1.155 0.647,2.262 1.242,3.275"
             stroke="#526ade"
             stroke-width="1.44928"
             stroke-linecap="round"
             stroke-linejoin="round" />
        </g>
        <g
           id="Group_87">
          <path
             id="Vector_81"
             d="m 820.155,239.301 c 0.903,-1.12 0.897,-2.382 1.911,-3.395 0.428,1.158 0.996,2.26 1.688,3.283"
             stroke="#526ade"
             stroke-width="1.44928"
             stroke-linecap="round"
             stroke-linejoin="round" />
        </g>
        <g
           id="Group_88">
          <path
             id="Vector_82"
             d="m 830.97,232.341 c 0.654,-1.062 1.35,-2.1 2.087,-3.105 0.232,1.21 0.637,2.381 1.201,3.474"
             stroke="#526ade"
             stroke-width="1.44928"
             stroke-linecap="round"
             stroke-linejoin="round" />
        </g>
        <g
           id="Group_89">
          <path
             id="Vector_83"
             d="m 837.612,235.833 c 0.273,-0.65 1.133,-2.158 1.713,-2.551 0.215,0.895 0.506,1.772 0.854,2.624"
             stroke="#526ade"
             stroke-width="1.44928"
             stroke-linecap="round"
             stroke-linejoin="round" />
        </g>
        <g
           id="Group_90">
          <path
             id="Vector_84"
             d="m 838.73,226.773 c 0.405,-0.768 0.877,-1.495 1.423,-2.173 0.265,1.073 0.721,2.087 1.358,2.993"
             stroke="#526ade"
             stroke-width="1.44928"
             stroke-linecap="round"
             stroke-linejoin="round" />
        </g>
        <g
           id="Group_91">
          <path
             id="Vector_85"
             d="m 844.684,226.046 c 0.298,-0.617 0.72,-1.169 1.233,-1.625 0.233,0.607 0.522,1.191 0.854,1.745"
             stroke="#526ade"
             stroke-width="1.44928"
             stroke-linecap="round"
             stroke-linejoin="round" />
        </g>
        <g
           id="Group_92">
          <path
             id="Vector_86"
             d="m 845.122,237.9 c 0.464,-0.81 1.093,-1.514 1.847,-2.067 0.083,-0.058 1.085,1.941 1.458,2.023"
             stroke="#526ade"
             stroke-width="1.44928"
             stroke-linecap="round"
             stroke-linejoin="round" />
        </g>
        <g
           id="Group_93">
          <path
             id="Vector_87"
             d="m 850.258,232.956 c 0.471,-1.002 1.068,-1.942 1.772,-2.798 0.315,1.123 0.82,2.182 1.507,3.129"
             stroke="#526ade"
             stroke-width="1.44928"
             stroke-linecap="round"
             stroke-linejoin="round" />
        </g>
        <g
           id="Group_94">
          <path
             id="Vector_88"
             d="m 850.084,224.789 c 0.57,-1.163 1.35,-2.208 2.31,-3.079 0.423,0.78 0.787,1.591 1.085,2.425"
             stroke="#526ade"
             stroke-width="1.44928"
             stroke-linecap="round"
             stroke-linejoin="round" />
        </g>
        <g
           id="Group_95">
          <path
             id="Vector_89"
             d="m 859.168,234.174 c 0.314,-0.875 0.811,-1.676 1.449,-2.352 l 1.101,2.837"
             stroke="#526ade"
             stroke-width="1.44928"
             stroke-linecap="round"
             stroke-linejoin="round" />
        </g>
        <g
           id="Group_96">
          <path
             id="Vector_90"
             d="m 856.095,243.226 c 0.174,-0.79 0.53,-1.528 1.044,-2.15 l 1.018,1.999"
             stroke="#526ade"
             stroke-width="1.44928"
             stroke-linecap="round"
             stroke-linejoin="round" />
        </g>
        <g
           id="Group_97">
          <path
             id="Vector_91"
             d="m 823.129,217.601 1.556,-2.91 c 0.12,-0.222 0.349,-0.484 0.571,-0.363 0.076,0.046 0.134,0.114 0.17,0.194 l 1.557,2.618"
             stroke="#526ade"
             stroke-width="1.44928"
             stroke-linecap="round"
             stroke-linejoin="round" />
        </g>
        <g
           id="Group_98">
          <path
             id="Vector_92"
             d="m 829.263,220.599 1.144,-2.468 1.191,2.011"
             stroke="#526ade"
             stroke-width="1.44928"
             stroke-linecap="round"
             stroke-linejoin="round" />
        </g>
        <g
           id="Group_99">
          <path
             id="Vector_93"
             d="m 837.148,219.934 c 0.331,-0.907 0.754,-1.78 1.259,-2.605 0.091,-0.141 0.215,-0.295 0.372,-0.281 0.067,0.013 0.125,0.038 0.174,0.075 0.058,0.036 0.1,0.084 0.133,0.138 l 1.035,1.3"
             stroke="#526ade"
             stroke-width="1.44928"
             stroke-linecap="round"
             stroke-linejoin="round" />
        </g>
        <g
           id="Group_100">
          <path
             id="Vector_94"
             d="m 845.122,211.228 1.325,-2.676 c 0.058,-0.102 0.124,-0.219 0.249,-0.219 0.041,0.008 0.083,0.025 0.116,0.05 0.033,0.025 0.066,0.058 0.091,0.096 l 1.631,2.003"
             stroke="#526ade"
             stroke-width="1.44928"
             stroke-linecap="round"
             stroke-linejoin="round" />
        </g>
        <g
           id="Group_101">
          <path
             id="Vector_95"
             d="m 828.245,201.421 1.507,-2.832 c 0.646,0.9 1.383,1.734 2.195,2.488"
             stroke="#526ade"
             stroke-width="1.44928"
             stroke-linecap="round"
             stroke-linejoin="round" />
        </g>
      </g>
      <g
         id="Group_102">
        <g
           id="Group_103">
          <path
             id="Vector_96"
             d="m 908.733,220.555 c 0.349,-0.732 1.407,-2.973 1.424,-2.91 0.274,0.805 0.903,2.085 1.243,3.026"
             stroke="#526ade"
             stroke-width="1.44928"
             stroke-linecap="round"
             stroke-linejoin="round" />
        </g>
        <g
           id="Group_104">
          <path
             id="Vector_97"
             d="m 912.658,226.2 c 0.713,-1.135 1.491,-2.227 2.336,-3.272 0.223,1.154 0.647,2.261 1.242,3.272"
             stroke="#526ade"
             stroke-width="1.44928"
             stroke-linecap="round"
             stroke-linejoin="round" />
        </g>
        <g
           id="Group_105">
          <path
             id="Vector_98"
             d="m 905.056,225.192 c 0.903,-1.121 0.894,-2.377 1.913,-3.396 0.431,1.158 0.994,2.26 1.681,3.284"
             stroke="#526ade"
             stroke-width="1.44928"
             stroke-linecap="round"
             stroke-linejoin="round" />
        </g>
        <g
           id="Group_106">
          <path
             id="Vector_99"
             d="m 915.872,218.242 c 0.646,-1.064 1.34,-2.099 2.094,-3.105 0.225,1.212 0.629,2.384 1.193,3.478"
             stroke="#526ade"
             stroke-width="1.44928"
             stroke-linecap="round"
             stroke-linejoin="round" />
        </g>
        <g
           id="Group_107">
          <path
             id="Vector_100"
             d="m 922.522,221.724 c 0.256,-0.65 1.126,-2.154 1.706,-2.551 0.215,0.895 0.497,1.772 0.853,2.623"
             stroke="#526ade"
             stroke-width="1.44928"
             stroke-linecap="round"
             stroke-linejoin="round" />
        </g>
        <g
           id="Group_108">
          <path
             id="Vector_101"
             d="m 923.64,212.663 c 0.397,-0.77 0.869,-1.501 1.407,-2.182 0.266,1.073 0.729,2.09 1.367,2.993"
             stroke="#526ade"
             stroke-width="1.44928"
             stroke-linecap="round"
             stroke-linejoin="round" />
        </g>
        <g
           id="Group_109">
          <path
             id="Vector_102"
             d="m 929.586,211.936 c 0.306,-0.614 0.72,-1.164 1.234,-1.62 0.232,0.605 0.522,1.187 0.853,1.741"
             stroke="#526ade"
             stroke-width="1.44928"
             stroke-linecap="round"
             stroke-linejoin="round" />
        </g>
        <g
           id="Group_110">
          <path
             id="Vector_103"
             d="m 930.017,223.795 c 0.472,-0.811 1.101,-1.515 1.855,-2.067 0.082,-0.063 1.085,1.942 1.457,2.019"
             stroke="#526ade"
             stroke-width="1.44928"
             stroke-linecap="round"
             stroke-linejoin="round" />
        </g>
        <g
           id="Group_111">
          <path
             id="Vector_104"
             d="m 935.159,218.847 c 0.472,-1.001 1.069,-1.941 1.764,-2.798 0.316,1.123 0.829,2.181 1.508,3.129"
             stroke="#526ade"
             stroke-width="1.44928"
             stroke-linecap="round"
             stroke-linejoin="round" />
        </g>
        <g
           id="Group_112">
          <path
             id="Vector_105"
             d="m 934.994,210.68 c 0.564,-1.164 1.35,-2.206 2.301,-3.074 0.423,0.781 0.779,1.592 1.086,2.425"
             stroke="#526ade"
             stroke-width="1.44928"
             stroke-linecap="round"
             stroke-linejoin="round" />
        </g>
        <g
           id="Group_113">
          <path
             id="Vector_106"
             d="m 944.062,220.065 c 0.315,-0.876 0.812,-1.676 1.458,-2.347 l 1.093,2.837"
             stroke="#526ade"
             stroke-width="1.44928"
             stroke-linecap="round"
             stroke-linejoin="round" />
        </g>
        <g
           id="Group_114">
          <path
             id="Vector_107"
             d="m 940.997,229.12 c 0.175,-0.791 0.531,-1.528 1.053,-2.153 l 1.001,1.999"
             stroke="#526ade"
             stroke-width="1.44928"
             stroke-linecap="round"
             stroke-linejoin="round" />
        </g>
        <g
           id="Group_115">
          <path
             id="Vector_108"
             d="m 908.029,203.491 1.557,-2.909 c 0.117,-0.223 0.356,-0.484 0.571,-0.363 0.075,0.05 0.133,0.116 0.167,0.193 l 1.564,2.619"
             stroke="#526ade"
             stroke-width="1.44928"
             stroke-linecap="round"
             stroke-linejoin="round" />
        </g>
        <g
           id="Group_116">
          <path
             id="Vector_109"
             d="m 914.166,206.489 1.134,-2.467 1.193,2.011"
             stroke="#526ade"
             stroke-width="1.44928"
             stroke-linecap="round"
             stroke-linejoin="round" />
        </g>
        <g
           id="Group_117">
          <path
             id="Vector_110"
             d="m 922.05,205.824 c 0.331,-0.906 0.752,-1.777 1.266,-2.599 0.083,-0.141 0.207,-0.296 0.365,-0.286 0.123,0.028 0.231,0.105 0.297,0.213 l 1.045,1.3"
             stroke="#526ade"
             stroke-width="1.44928"
             stroke-linecap="round"
             stroke-linejoin="round" />
        </g>
        <g
           id="Group_118">
          <path
             id="Vector_111"
             d="m 930.024,197.124 1.326,-2.677 c 0.049,-0.107 0.132,-0.223 0.24,-0.223 0.041,0.008 0.082,0.025 0.123,0.051 0.034,0.025 0.067,0.056 0.084,0.094 l 1.639,2.009"
             stroke="#526ade"
             stroke-width="1.44928"
             stroke-linecap="round"
             stroke-linejoin="round" />
        </g>
        <g
           id="Group_119">
          <path
             id="Vector_112"
             d="m 913.147,187.312 1.507,-2.833 c 0.647,0.902 1.383,1.735 2.187,2.488"
             stroke="#526ade"
             stroke-width="1.44928"
             stroke-linecap="round"
             stroke-linejoin="round" />
        </g>
      </g>
    </g>
    <g
       id="Group_134"
       style="display:inline"
       inkscape:label="cloud_6">
      <path
         id="Vector_128"
         d="m 958.609,134.179 c 0.796,-1.053 0.862,-2.653 0,-3.613 -0.853,-0.96 -2.427,-1.965 -4.365,0.3 0.067,-2.682 -1.423,-4.496 -3.875,-4.594 -2.203,-0.082 -3.271,1.219 -4.77,2.518 -0.364,-0.324 -0.804,-0.55 -1.284,-0.658 -0.472,-0.109 -0.969,-0.096 -1.441,0.037 -0.472,0.162 -0.886,0.449 -1.2,0.831 -0.323,0.381 -0.53,0.842 -0.606,1.332 -0.372,-0.47 -0.877,-0.819 -1.449,-1.004 -0.571,-0.184 -1.183,-0.196 -1.756,-0.033 -0.579,0.182 -1.092,0.502 -1.514,0.933 -0.414,0.43 -0.721,0.958 -0.887,1.535 -1.697,5.82 8.241,4.468 11.313,4.24 2.824,-0.203 5.739,0.232 8.513,-0.078 1.251,-0.091 2.419,-0.666 3.264,-1.605 0.015,-0.046 0.04,-0.093 0.057,-0.141 z"
         fill="#ffffff" />
      <path
         id="Vector_129"
         d="m 958.609,134.179 c 0.796,-1.053 0.862,-2.653 0,-3.613 -0.853,-0.96 -2.427,-1.965 -4.365,0.3 0.067,-2.682 -1.423,-4.496 -3.875,-4.594 -2.203,-0.082 -3.271,1.219 -4.77,2.518 -0.364,-0.324 -0.804,-0.55 -1.284,-0.658 -0.472,-0.109 -0.969,-0.096 -1.441,0.037 -0.472,0.162 -0.886,0.449 -1.2,0.831 -0.323,0.381 -0.53,0.842 -0.606,1.332 -0.372,-0.47 -0.877,-0.819 -1.449,-1.004 -0.571,-0.184 -1.183,-0.196 -1.756,-0.033 -0.579,0.182 -1.092,0.502 -1.514,0.933 -0.414,0.43 -0.721,0.958 -0.887,1.535 -1.697,5.82 8.241,4.468 11.313,4.24 2.824,-0.203 5.739,0.232 8.513,-0.078 1.251,-0.091 2.419,-0.666 3.264,-1.605 0.015,-0.046 0.04,-0.093 0.057,-0.141 z"
         stroke="#526ade"
         stroke-width="1.44928"
         stroke-linecap="round"
         stroke-linejoin="round" />
    </g>
    <g
       id="Group_135"
       style="display:inline"
       inkscape:label="cloud_7">
      <path
         id="Vector_130"
         d="m 1028.3,179.868 c 0.84,0.939 2.01,1.514 3.26,1.605 2.77,0.311 5.69,-0.126 8.51,0.078 2.74,0.198 5.63,0.635 8.35,-0.01 3.04,-0.724 4.71,-4.753 0.99,-6.255 -1.09,-0.44 -2.45,-0.107 -3.22,0.791 -0.24,-3.217 -2.97,-6.067 -6.17,-6.46 -2.12,-0.26 -4.3,0.573 -5.81,2.047 -1.62,1.567 -1.36,2.695 -1.64,4.676 -1.32,-1.415 -2.97,-1.755 -4.33,-0.226 -0.86,0.96 -0.8,2.561 0,3.614 0.01,0.048 0.04,0.094 0.06,0.14 z"
         fill="#ffffff" />
      <path
         id="Vector_131"
         d="m 1028.3,179.868 c 0.84,0.939 2.01,1.514 3.26,1.605 2.77,0.311 5.69,-0.126 8.51,0.078 2.74,0.198 5.63,0.635 8.35,-0.01 3.04,-0.724 4.71,-4.753 0.99,-6.255 -1.09,-0.44 -2.45,-0.107 -3.22,0.791 -0.24,-3.217 -2.97,-6.067 -6.17,-6.46 -2.12,-0.26 -4.3,0.573 -5.81,2.047 -1.62,1.567 -1.36,2.695 -1.64,4.676 -1.32,-1.415 -2.97,-1.755 -4.33,-0.226 -0.86,0.96 -0.8,2.561 0,3.614 0.01,0.048 0.04,0.094 0.06,0.14 z"
         stroke="#526ade"
         stroke-width="1.44928"
         stroke-linecap="round"
         stroke-linejoin="round" />
    </g>
    <g
       id="Group_137"
       inkscape:label="cloud_3">
      <path
         id="Vector_132"
         d="m 474.396,88.5399 c 2.051,0.694 4.263,0.6742 6.426,0.6501 l 27.506,-0.2956 c 3.254,-0.034 6.959,-0.2708 9.016,-2.7975 3.52,-4.3172 -1.126,-10.8116 -5.471,-12.3396 -1.186,-0.4107 -2.444,-0.5722 -3.696,-0.4745 -1.252,0.0977 -2.47,0.4522 -3.578,1.0426 -1.79,-3.4633 -5.776,-5.6165 -9.636,-5.4716 -2.694,0.0944 -5.301,0.9781 -7.497,2.5416 -0.954,0.7338 -1.739,1.6638 -2.304,2.7263 -0.15,0.2857 -1.28,2.8663 -0.907,3.0551 -3.913,-1.9644 -10.184,-1.3242 -13.035,2.3039 -2.667,3.4195 -0.655,7.7839 3.176,9.0592 z"
         fill="#ffffff" />
      <path
         id="Vector_133"
         d="m 474.396,88.5399 c 2.051,0.694 4.263,0.6742 6.426,0.6501 l 27.506,-0.2956 c 3.254,-0.034 6.959,-0.2708 9.016,-2.7975 3.52,-4.3172 -1.126,-10.8116 -5.471,-12.3396 -1.186,-0.4107 -2.444,-0.5722 -3.696,-0.4745 -1.252,0.0977 -2.47,0.4522 -3.578,1.0426 -1.79,-3.4633 -5.776,-5.6165 -9.636,-5.4716 -2.694,0.0944 -5.301,0.9781 -7.497,2.5416 -0.954,0.7338 -1.739,1.6638 -2.304,2.7263 -0.15,0.2857 -1.28,2.8663 -0.907,3.0551 -3.913,-1.9644 -10.184,-1.3242 -13.035,2.3039 -2.667,3.4195 -0.655,7.7839 3.176,9.0592 z"
         stroke="#526ade"
         stroke-width="1.44928"
         stroke-linecap="round"
         stroke-linejoin="round" />
    </g>
  </g>
</svg>
