<svg height="484" viewBox="0 0 1200 484" fill="none" xmlns="http://www.w3.org/2000/svg">
    <g style="display:inline">
        <g style="display:inline">
            <path d="M835.954 106.688c1.508.485 3.148.485 4.746.485l20.324-.223c2.425 0 5.142-.199 6.658-2.066 2.599-3.192-.828-7.989-4.041-9.12a6.8 6.8 0 0 0-5.368.418 7.894 7.894 0 0 0-2.989-3.02 7.85 7.85 0 0 0-4.132-1.02 10.18 10.18 0 0 0-5.541 1.877 6.224 6.224 0 0 0-1.698 2.013c-.115.213-.976 2.12-.67 2.26-2.916-1.455-7.537-.97-9.632 1.702-1.98 2.537-.497 5.724 2.343 6.694z" fill="#fff"/>
            <path d="M835.954 106.688c1.508.485 3.148.485 4.746.485l20.324-.223c2.425 0 5.142-.199 6.658-2.066 2.599-3.192-.828-7.989-4.041-9.12a6.8 6.8 0 0 0-5.368.418 7.894 7.894 0 0 0-2.989-3.02 7.85 7.85 0 0 0-4.132-1.02 10.18 10.18 0 0 0-5.541 1.877 6.224 6.224 0 0 0-1.698 2.013c-.115.213-.976 2.12-.67 2.26-2.916-1.455-7.537-.97-9.632 1.702-1.98 2.537-.497 5.724 2.343 6.694z" stroke="#526ade" stroke-width="1.449" stroke-linecap="round" stroke-linejoin="round"/>
        </g>
        <g style="display:inline">
            <path d="M265.129 135.106c1.518.484 3.153.485 4.748.485l20.323-.219c2.425-.029 5.142-.203 6.664-2.071 2.599-3.187-.829-7.988-4.044-9.118a6.746 6.746 0 0 0-5.364.422 7.847 7.847 0 0 0-7.124-4.045c-1.99.07-3.915.724-5.538 1.877a6.303 6.303 0 0 0-1.702 2.014c-.111.212-.945 2.119-.67 2.26-2.909-1.456-7.54-.972-9.635 1.706-1.974 2.522-.49 5.733 2.342 6.689z" fill="#fff"/>
            <path d="M265.129 135.106c1.518.484 3.153.485 4.748.485l20.323-.219c2.425-.029 5.142-.203 6.664-2.071 2.599-3.187-.829-7.988-4.044-9.118a6.746 6.746 0 0 0-5.364.422 7.847 7.847 0 0 0-7.124-4.045c-1.99.07-3.915.724-5.538 1.877a6.303 6.303 0 0 0-1.702 2.014c-.111.212-.945 2.119-.67 2.26-2.909-1.456-7.54-.972-9.635 1.706-1.974 2.522-.49 5.733 2.342 6.689z" stroke="#526ade" stroke-width="1.449" stroke-linecap="round" stroke-linejoin="round"/>
        </g>
        <g style="display:inline">
            <path d="M711.692 110.272a4.873 4.873 0 0 0 3.261 1.601c2.77.315 5.69-.126 8.508.082 3.08.223 13.016 1.581 11.318-4.243a3.623 3.623 0 0 0-2.402-2.47 3.035 3.035 0 0 0-3.209 1.039 2.724 2.724 0 0 0-1.803-2.163 2.905 2.905 0 0 0-2.727.62c-1.498-1.3-2.56-2.6-4.766-2.517-2.449.097-3.943 1.91-3.881 4.592-1.939-2.26-3.5-1.26-4.364-.295-.863.965-.79 2.56 0 3.608z" fill="#fff"/>
            <path d="M711.692 110.272a4.873 4.873 0 0 0 3.261 1.601c2.77.315 5.69-.126 8.508.082 3.08.223 13.016 1.581 11.318-4.243a3.623 3.623 0 0 0-2.402-2.47 3.035 3.035 0 0 0-3.209 1.039 2.724 2.724 0 0 0-1.803-2.163 2.905 2.905 0 0 0-2.727.62c-1.498-1.3-2.56-2.6-4.766-2.517-2.449.097-3.943 1.91-3.881 4.592-1.939-2.26-3.5-1.26-4.364-.295-.863.965-.79 2.56 0 3.608z" stroke="#526ade" stroke-width="1.449" stroke-linecap="round" stroke-linejoin="round"/>
        </g>
        <g style="display:inline">
            <path d="M177.004 177.617a4.91 4.91 0 0 1-3.264 1.605c-2.77.311-5.689-.131-8.511.078-3.08.228-13.012 1.581-11.314-4.244a3.61 3.61 0 0 1 2.425-2.464c1.731-.492 3.344.886 4.441 2.088.318-2.042 2.193-3.73 4.256-3.833 2.063-.103 4.097 1.391 4.616 3.391a4.538 4.538 0 0 1 3.64-2.012c2.61-.053 5.782 2.608 3.797 5.251z" fill="#fff"/>
            <path d="M177.004 177.617a4.91 4.91 0 0 1-3.264 1.605c-2.77.311-5.689-.131-8.511.078-3.08.228-13.012 1.581-11.314-4.244a3.61 3.61 0 0 1 2.425-2.464c1.731-.492 3.344.886 4.441 2.088.318-2.042 2.193-3.73 4.256-3.833 2.063-.103 4.097 1.391 4.616 3.391a4.538 4.538 0 0 1 3.64-2.012c2.61-.053 5.782 2.608 3.797 5.251z" stroke="#526ade" stroke-width="1.449" stroke-linecap="round" stroke-linejoin="round"/>
        </g>
        <g style="display:inline">
            <path d="M1014.01 274.701a416.4 416.4 0 0 1-13.72-5.057c-4.177-1.625-8.51-2.91-12.584-4.778l-3.66-1.609h-.034c-.935-.412-1.945-.864-2.972-1.32-2.883-1.285.815-1.328.351-1.701-10.293-8.158-18.933-23.552-25.924-35.044-3.176-5.219-6.666-11.337-9.333-16.86-5.441-11.301-13.725-23.212-20.176-33.94-5.938-9.875-13.167-22.491-25.623-23.97-1.398-.165-3.155-.616-4.555-.489-15.469 1.396-24.154 13.528-39.586 21.546-4.425 2.3-7.449 2.662-12.077.805-10.345-4.031-14.671-13.555-20.814-22.344-8.201-11.722-15.272-26.268-26.479-35.435a33.235 33.235 0 0 0-4.063-2.852c-5.523-3.303-12.036-4.99-18.234-3.526-8.453 1.994-14.602 9.273-18.943 16.797-4.34 7.522-7.599 15.797-13.374 22.282-.316.354-.636.703-.969 1.042-5.364 5.535-13.374 10.417-21.272 10.549-7.843.13-14.878.783-21.957-3.456-6.342-3.798-11.176-9.63-15.638-15.524-18.613-24.59-29.683-53.62-48.804-77.732-6.896-8.695-13.843-15.032-22.955-18.208h-.058a26.793 26.793 0 0 0-8.244-1.455h-2.453c-13.12.542-21.678 5.925-30.469 13.436-1.292 1.104-2.222 2.695-3.331 4.19-6.557 8.841-13.012 20.9-17.943 31.982-2.212 4.957-4.122 9.7-5.606 13.915v.034a110.71 110.71 0 0 1-7.654 16.679l-.073.136a96.564 96.564 0 0 1-11.429 16.389l-.116.127a57.63 57.63 0 0 1-2.813 2.982 45.485 45.485 0 0 1-3.783 3.318c-2.761 2.183-5.74 4.121-8.898 5.679-3.305 1.633-5.112 1.689-8.094-.734a205.032 205.032 0 0 1-20.198-18.806c-3.041-3.24-6.31-6.537-9.65-9.428-3.362-2.91-6.245-6.614-9.574-9.61-9.869-8.881-17.071-19.547-30.305-18.543-.864.066-1.721.198-2.566.394-7.171 1.614-14.063 7.459-19.009 12.799-.067.068-.131.14-.194.208-5.567 6.029-9.519 13.335-13.409 20.561-3.321 6.175-6.683 12.417-10.479 18.319a89.817 89.817 0 0 1-12.057 15.244 64.871 64.871 0 0 1-2.695 2.546c-11.019 9.812-23.663 18.181-37.605 13.355-1.955-.692-7.059-4.137-8.888-5.114-8.972-4.71-17.088-11.913-27.078-11.805-.954.01-1.906.09-2.847.238-6.145.97-10.695 5.157-14.886 9.848-4.849 5.403-11.438 12.694-14.604 19.213-.068.135-.13.277-.199.413-6.203 12.78-14.018 26.968-20.629 39.452-8.301 15.575-16.624 29.757-34.124 40.533-2.492 1.534-4.884 3.231-7.418 4.697-1.249.723-2.542 1.441-3.891 1.963-1.188.46-2.103.401-2.643 1.758-.248.621-.331 1.296-.397 1.962-.505 5.025-.391 9.978.627 14.923a58.686 58.686 0 0 0 1.315 5.976c.303 1.041.77 2.028 1.382 2.924a7.354 7.354 0 0 0 2.274 1.906c1.067.625 2.245 1.13 3.23 1.654 11.639 6.195 25.217 6.466 38.083 6.688h1.053l50.647.878 44.058.762 92.542 1.6 32.045.552 36.076-.76c25.101-.53 50.207-1.133 75.322-1.804l13.863.316c29.672.672 59.34 1.317 89.003 1.938l25.896.485 101.441 1.94 80.602 1.529c1.416.028 2.831.028 4.256 0h.033c.887 0 1.773-.044 2.65-.073 8.407-.281 16.803-1.219 25.242-1.878l2.385-.179c19.247-1.451 39.244-3.806 57.412-10.931 9.059-3.552 17.492-8.5 25.557-13.908 3.88-2.604 7.57-5.429 11.26-8.229 1.6-1.212 11.55-8.923 13.13-8.4a653.274 653.274 0 0 1-11.68-3.96z" fill="#00b8cd"/>
            <path d="M325.264 174.012c-6.867-4.951-15.52-9.81-23.599-12.536-1.455-.485-2.273-.432-4.363-.625-3.473-.326 5.446 2.271 8.308 4.038 9.65 5.96 10.585 7.641 14.493 13.355 4.819 7.078 5.834 12.312 9.932 17.724 3.872 5.234 8.306 7.542 12.253 9.123 3.947 1.581 8.685 1.392 12.935 1.238 4.989-.214 11.504-3.726 12.463-8.629.549-2.799.017-5.926-2.102-7.827-2.91-2.614-7.868-3.002-11.82-2.541a7.105 7.105 0 0 1-2.028.063 2.103 2.103 0 0 1-1.605-1.11c-.432-1 .984-2.326 1.958-2.782 1.86-.859 3.607-1.512 5.343-2.181 1.737-.669 4.185-1.795 5.567-3.036 3.074-2.751.92-8.73-4.192-5.82-5.111 2.91-10.362 4.975-16.08 5.8-3.176.461-5.272.495-8.565-.32a25.69 25.69 0 0 1-8.898-3.934zm198.217-6.698a67.16 67.16 0 0 1-13.546-8.768c-2.618-2.178-4.713-4.851-7.501-6.718a66.019 66.019 0 0 1-8.652-7.159c-4.238-4.04-11.426-10.25-16.841-15.094-7.086-7.859-9.444-10.059-14.424-14.512-5.455-4.849-10.543-10.239-16.488-14.512-2.066-1.48-16.919-11.252-15.149-2.057.485 2.576 2.865 4.279 4.955 5.855 4.705 3.548 8.548 5.691 12.218 10.301 2.668 3.319 2.925 6.213 2.21 7.968-1.843 4.467-6.639 2.501-9.838 4.513-2.331 1.48-1.849 5.034.51 7.675 2.001 2.259 8.019 4.652 10.598 5.651 7.022 2.721 15.656 3.443 19.318 10.025a6.987 6.987 0 0 1 .97 3.371c-.044 4.807-10.335 5.403-13.498 10.253-2.929 4.505 1.623 9.781 5.541 12.284 3.918 2.502 12.736 3.589 17.222 4.821 6.389 1.765 10.098 4.758 15.34 8.813 2.512 1.94 4.972 4.751 7.882 6.031 2.909 1.281 6.586 1.455 9.03-.596 2.993-2.489-.912-6.734 1.007-11.406 1.846-4.485 5.332-6.301 8.532-6.425 3.961-.123 7.498-.774 10.846-2.122.877-.344 2.598-1.763 2.555-2.573-.063-1.183-4.432-2.262-5.553-2.65a66.372 66.372 0 0 1-7.244-2.969zm449.326 89.961c.465-.935.357-2.308-.596-4.3-6.368-13.325-20.852-34.025-28.008-46.946-7.876-14.177-16.008-29.203-25.466-42.406-3.37-4.695-6.343-6.305-10.484-9.909-1.226-1.056-4.804-2.623-6.386-2.943-1.59-.321-3.108.074-3.431 1.665-.323 1.59.894 2.871 2.004 3.947 4.017 3.881 8.246 7.364 11.948 11.549 2.758 3.134 6.053 7.22 5.1 11.29-1.168 4.971-8.176 10.063-7.298 15.093.538 3.123 3.305 5.089 6.179 6.378 3.494 1.572 8.454 2.179 12.131 3.26 3.678 1.082 7.53 2.476 10.063 5.347 2.526 2.871 3.165 7.173 1.202 10.458-1.69 2.807-5.599 4.59-7.363 7.345-1.226 1.906-1.921 4.282-1.714 6.533.331 3.68 2.139 7.742 5.185 9.788 5.975 4.005 12.59 6.318 19.702 7.465 8.739 1.632 16.056 8.739 17.232 6.386zm-135.08-88.738c-5.6-5.236-9.691-11.439-14.346-17.476-5.757-7.449-10.32-15.734-15.796-23.386a74.855 74.855 0 0 0-9.043-10.695 46.62 46.62 0 0 0-5.481-4.525c-1.94-1.363-11.886-8.548-13.526-4.667-.668 1.592.537 2.757 1.851 3.88 1.315 1.127 4.166 1.622 5.533 2.68s2.498 2.928 2.086 4.601c-.359 1.456-3.203 3.118-3.62 4.573-.704 2.382 1.455 4.555 3.418 6.091 5.474 4.285 10.943 6.084 15.815 11.076 2.471 2.529 6.601 7.311 8.83 10.048 2.21 2.664 4.757 6.79 2.25 9.136-1.158 1.083-3.755 1.666-5.335 1.653-2.181-.04-4.352.408-5.497 1.506-1.314 1.26-1.616 3.313-1.172 5.081.443 1.766 1.518 3.302 2.651 4.728 5.924 7.454 12.937 11.656 21.35 15.956 3.328 1.7 6.961 3.334 10.499 4.573 2.261.794 8.013 2.911 9.941.927.849-.875 1.214-2.099 1.53-3.276.315-1.178.633-2.405 1.422-3.335 1.311-1.543 3.488-2.523 5.484-2.343 2.689.288 4.583-.019 4.893-2.02.206-1.322.353-2.317-.673-3.175-1.027-.859-3.1-.536-4.354-1-4.267-1.576-8.844-4.04-12.989-5.912-1.059-.479-4.653-3.7-5.721-4.699zm-136.196-9.875c-2.313-1.508-4.898-3.88-6.839-5.627a100.67 100.67 0 0 1-12.676-13.852c-4.568-5.97-9.374-12.722-12.633-19.541l-8.796-14.547-12.614-22.101c-4.059-6.18-7.997-12.465-12.429-18.392-4.433-5.927-9.287-11.563-15.258-15.865-3.161-2.279-14.419-10.06-17.721-4.642-.674 1.107-.607 2.55-.091 3.738.515 1.189 1.426 2.161 2.395 3.02 2.863 2.54 6.33 4.299 9.35 6.65 3.019 2.351 6.531 4.745 6.742 9.668.228 5.306-3.008 7.51-5.051 11.067-2.603 4.53-4.631 9.534-4.809 14.757-.144 4.14.995 8.421 3.568 11.712.992 1.268 1.899 2.847 3.13 3.884 1.808 1.525 12.648 7.402 14.765 8.415 9.621 4.603 13.723 6.348 20.131 12.713 4.056 4.051 5.072 7.394 5.461 12.239.484 6.354-5.755 12.542-10.125 17.179-1.392 1.479-2.769 3.133-3.099 5.136-.848 5.161 4.672 9.656 9.724 10.889 17.297 3.812 15.229 8.396 19.853 16.631 1.416 2.536 3.364 6.142 5.591 8.009 2.226 1.868 5.819 2.513 7.948.529 1.401-1.309 1.786-3.341 2.26-5.204 1.633-6.352 3.322-12.031 9.302-14.547 5.157-2.065 8.592-5.462 10.93-8.838 2.337-3.375.762-5.892-2.337-8.584-2.138-1.804-4.31-2.949-6.672-4.496z" fill="#0099c4"/>
            <path d="M213.663 266.031c28.806-17.238 39.693-68.703 61.054-91.572 5.762-6.16 11.959-13.052 20.367-13.857 8.788-.844 16.706 4.753 24.248 9.385 7.541 4.632 11.061 9.7 23.427 7.998" stroke="#526ade" stroke-width="1.449" stroke-linecap="round" stroke-linejoin="round"/>
            <path d="M342.725 177.985c13.875-1.154 24.573-9.953 32.933-20.278a240.988 240.988 0 0 0 19.98-28.684c5.557-9.357 9.184-18.95 17.191-26.798 7.662-7.508 17.313-10.22 27.337-5.621 4.005 1.843 7.366 4.811 10.669 7.76 12.676 11.272 25.474 24.853 38.15 36.129 10.509 9.341 20.217 17.781 31.744 25.832 7.537 5.263 17.338 7.867 25.155 5.655" stroke="#526ade" stroke-width="1.449" stroke-linecap="round" stroke-linejoin="round"/>
            <path d="M503.699 153.249c10.735-4.039 21.244-14.851 26.862-23.582 7.847-12.193 12.546-26.079 18.118-39.46 5.573-13.382 12.357-26.74 23.249-36.3 10.892-9.56 26.754-14.642 40.25-9.418 8.831 3.394 15.577 10.617 21.628 17.892 11.741 14.114 38.743 64.881 45.819 74.692 11.738 15.622 25.6 26.944 37.098 30.722" stroke="#526ade" stroke-width="1.449" stroke-linecap="round" stroke-linejoin="round"/>
            <path d="M695.814 154.781c25.501 11.409 41.682-1.43 47.147-8.832 5.466-7.401 8.792-16.175 13.88-23.843 5.087-7.668 12.817-14.551 22.012-14.86 8.675-.292 16.464 5.335 22.341 11.717 10.014 10.899 16.527 24.494 25.169 36.513 8.639 12.018 20.614 23.037 35.322 24.672" stroke="#526ade" stroke-width="1.449" stroke-linecap="round" stroke-linejoin="round"/>
            <path d="M841.37 171.38c12.018 4.608 22.544-3.216 29.947-9.07 7.404-5.854 15.379-12.446 24.82-12.378 6.079.044 11.859 2.974 16.422 6.995 4.564 4.02 8.066 9.084 11.42 14.157 16.704 25.25 32.158 57.576 48.447 81.109M383.33 202.474c-.349-.728-1.406-2.973-1.425-2.91-.282.8-.902 2.085-1.247 3.021m-1.255 5.533a35.347 35.347 0 0 0-2.338-3.272 10.279 10.279 0 0 1-1.241 3.272m-49.799-6.241c-.902-1.12-.893-2.376-1.912-3.394a15.302 15.302 0 0 1-1.687 3.283m65.933-37.846a44.405 44.405 0 0 0-2.066-3.119 12.623 12.623 0 0 1-1.227 3.468m-15.522 42.051c-.267-.65-1.13-2.159-1.712-2.551a18.518 18.518 0 0 1-.854 2.624m26.614-31.057a25.512 25.512 0 0 0-1.916-2.991 8.965 8.965 0 0 1-1.362 2.991m-39.237 9.162a5.24 5.24 0 0 0-1.237-1.619 10.629 10.629 0 0 1-.854 1.74m13.041 21.094a6.706 6.706 0 0 0-1.848-2.066c-.087-.058-1.087 1.941-1.455 2.023m-19.901-16.482a13.499 13.499 0 0 0-1.766-2.798 9.972 9.972 0 0 1-1.508 3.134m40.983-9.115a10.225 10.225 0 0 0-2.309-3.079 18.08 18.08 0 0 0-1.082 2.426m17.391-30.251a6.657 6.657 0 0 0-1.455-2.348l-1.096 2.839m-45.256 53.666a5.08 5.08 0 0 0-1.051-2.148l-1.014 1.992m42.603-16.427-1.562-2.909c-.117-.223-.349-.485-.572-.364a.484.484 0 0 0-.165.194l-1.562 2.619m-3.578 2.57-1.139-2.464-1.194 2.013m-7.288.45a14.269 14.269 0 0 0-1.261-2.599c-.087-.14-.205-.296-.37-.286a.48.48 0 0 0-.3.213c-.345.436-1.048 2.24-1.397 2.672m-.849-10.146-1.323-2.677c-.054-.102-.127-.223-.243-.218-.116.005-.155.077-.208.14-.548.67-1.247 1.941-1.79 2.585m20.451-9.617-1.508-2.833c-.647.9-1.381 1.734-2.193 2.488m194.993 11.499c-.35-.732-1.408-2.972-1.427-2.909-.281.801-.902 2.085-1.247 3.022m-1.254 5.519a35.727 35.727 0 0 0-2.338-3.272 10.28 10.28 0 0 1-1.242 3.272m11.18-1.003c-.902-1.126-.893-2.382-1.911-3.396a15.326 15.326 0 0 1-1.689 3.279m-8.191-7.644a42.981 42.981 0 0 0-2.07-3.119 12.418 12.418 0 0 1-1.223 3.468m-2.375 6.616c-.266-.65-1.129-2.158-1.712-2.556a17.686 17.686 0 0 1-.853 2.629m26.617-31.066a25.607 25.607 0 0 0-1.939-2.991 8.9 8.9 0 0 1-1.363 2.991m-39.212 9.172a5.284 5.284 0 0 0-1.241-1.62 10.639 10.639 0 0 1-.854 1.741m13.05 21.093a6.59 6.59 0 0 0-1.848-2.066c-.082-.063-1.086 1.941-1.455 2.023m-1.833-4.899a13.383 13.383 0 0 0-1.77-2.802 9.96 9.96 0 0 1-1.503 3.132m44.115-7.125a10.034 10.034 0 0 0-2.309-3.074 18.508 18.508 0 0 0-1.081 2.425m-46.356 8.676a6.77 6.77 0 0 0-1.454-2.352l-1.097 2.837m5.621 8.551a5.097 5.097 0 0 0-1.052-2.149l-1.013 1.994M570.137 165l-1.562-2.934c-.117-.223-.35-.484-.573-.363a.482.482 0 0 0-.164.189l-1.562 2.624m-3.577 2.595-1.14-2.468-1.194 2.013m-7.269.455a14.337 14.337 0 0 0-1.267-2.6c-.082-.141-.204-.296-.369-.286a.485.485 0 0 0-.301.213c-.343.437-1.047 2.241-1.396 2.673m-.857-10.147-1.324-2.677c-.049-.102-.126-.223-.243-.218-.116.005-.15.073-.209.14-.542.67-1.245 1.916-1.788 2.585m20.444-9.637-1.508-2.832a16.877 16.877 0 0 1-2.192 2.487m97.703 27.87c.349-.733 1.406-2.973 1.426-2.909.282.8.903 2.085 1.247 3.021m1.255 5.535a35.705 35.705 0 0 1 2.337-3.275 10.25 10.25 0 0 0 1.242 3.275m-11.178-1.006c.901-1.124.897-2.38 1.94-3.393.423 1.157.99 2.259 1.684 3.278m7.19-6.844a46.503 46.503 0 0 1 2.09-3.104c.228 1.21.63 2.38 1.198 3.472m3.356 3.125c.266-.655 1.129-2.158 1.711-2.556.219.897.503 1.775.855 2.629m-1.442-9.133c.403-.769.879-1.496 1.421-2.173a9.037 9.037 0 0 0 1.363 2.993m3.156-1.553a5.399 5.399 0 0 1 1.242-1.62c.231.607.516 1.192.853 1.747m-1.652 11.731a6.633 6.633 0 0 1 1.847-2.066c.087-.063 1.086 1.941 1.454 2.023m1.835-4.898a13.588 13.588 0 0 1 1.769-2.803 9.932 9.932 0 0 0 1.509 3.132m-3.448-8.503a10.219 10.219 0 0 1 2.307-3.075c.422.781.784 1.591 1.087 2.425m5.684 10.041a6.72 6.72 0 0 1 1.455-2.352l1.096 2.837m-5.621 8.565a5.036 5.036 0 0 1 1.049-2.148l1.012 1.993m-35.028-25.479 1.557-2.909c.121-.223.349-.485.572-.364a.447.447 0 0 1 .169.189l1.563 2.624m2.284 3.462 1.139-2.468 1.191 2.018m5.546-.208c.333-.908.756-1.781 1.264-2.605.082-.141.204-.295.369-.286a.499.499 0 0 1 .301.218l1.037 1.3m5.005-7.334 1.325-2.676c.052-.102.125-.224.242-.219a.296.296 0 0 1 .209.141l1.638 2.007m-20.294-9.06 1.508-2.832a17.008 17.008 0 0 0 2.192 2.488m155.92 93.56c.349-.728 1.405-2.969 1.425-2.911.281.8.902 2.086 1.247 3.023m1.257 5.538a33.548 33.548 0 0 1 2.335-3.275 10.393 10.393 0 0 0 1.242 3.275m-11.178-1.009c.903-1.12.897-2.382 1.911-3.395.428 1.158.996 2.26 1.688 3.283m7.216-6.848c.654-1.062 1.35-2.1 2.087-3.105a12.86 12.86 0 0 0 1.201 3.474m3.354 3.123c.273-.65 1.133-2.158 1.713-2.551.215.895.506 1.772.854 2.624m-1.449-9.133c.405-.768.877-1.495 1.423-2.173a8.907 8.907 0 0 0 1.358 2.993m3.173-1.547a5.214 5.214 0 0 1 1.233-1.625c.233.607.522 1.191.854 1.745m-1.649 11.734a6.683 6.683 0 0 1 1.847-2.067c.083-.058 1.085 1.941 1.458 2.023m1.831-4.9a13.349 13.349 0 0 1 1.772-2.798 9.847 9.847 0 0 0 1.507 3.129m-3.453-8.498a10.228 10.228 0 0 1 2.31-3.079c.423.78.787 1.591 1.085 2.425m5.689 10.039a6.762 6.762 0 0 1 1.449-2.352l1.101 2.837m-5.623 8.567c.174-.79.53-1.528 1.044-2.15l1.018 1.999m-35.028-25.474 1.556-2.91c.12-.222.349-.484.571-.363a.432.432 0 0 1 .17.194l1.557 2.618m2.28 3.459 1.144-2.468 1.191 2.011m5.55-.208c.331-.907.754-1.78 1.259-2.605.091-.141.215-.295.372-.281a.415.415 0 0 1 .174.075c.058.036.1.084.133.138l1.035 1.3m5.001-7.333 1.325-2.676c.058-.102.124-.219.249-.219a.287.287 0 0 1 .116.05.398.398 0 0 1 .091.096l1.631 2.003m-20.289-9.061 1.507-2.832a16.64 16.64 0 0 0 2.195 2.488m76.786 19.478c.349-.732 1.407-2.973 1.424-2.91.274.805.903 2.085 1.243 3.026m1.258 5.529a33.76 33.76 0 0 1 2.336-3.272 10.32 10.32 0 0 0 1.242 3.272m-11.18-1.008c.903-1.121.894-2.377 1.913-3.396.431 1.158.994 2.26 1.681 3.284" stroke="#526ade" stroke-width="1.449" stroke-linecap="round" stroke-linejoin="round"/>
            <path d="M915.872 218.242a38.354 38.354 0 0 1 2.094-3.105 12.622 12.622 0 0 0 1.193 3.478m3.363 3.109c.256-.65 1.126-2.154 1.706-2.551.215.895.497 1.772.853 2.623m-1.441-9.133c.397-.77.869-1.501 1.407-2.182a8.9 8.9 0 0 0 1.367 2.993m3.172-1.538a5.341 5.341 0 0 1 1.234-1.62c.232.605.522 1.187.853 1.741m-1.656 11.738a6.787 6.787 0 0 1 1.855-2.067c.082-.063 1.085 1.942 1.457 2.019m1.83-4.9a13.789 13.789 0 0 1 1.764-2.798 10.055 10.055 0 0 0 1.508 3.129m-3.437-8.498a10.18 10.18 0 0 1 2.301-3.074c.423.781.779 1.592 1.086 2.425m5.681 10.034a6.609 6.609 0 0 1 1.458-2.347l1.093 2.837m-5.616 8.565a5.05 5.05 0 0 1 1.053-2.153l1.001 1.999m-35.022-25.475 1.557-2.909c.117-.223.356-.484.571-.363.075.05.133.116.167.193l1.564 2.619m2.278 3.458 1.134-2.467 1.193 2.011m5.557-.209c.331-.906.752-1.777 1.266-2.599.083-.141.207-.296.365-.286a.472.472 0 0 1 .297.213l1.045 1.3m5.001-7.328 1.326-2.677c.049-.107.132-.223.24-.223a.358.358 0 0 1 .123.051.252.252 0 0 1 .084.094l1.639 2.009m-20.289-9.066 1.507-2.833a16.952 16.952 0 0 0 2.187 2.488" stroke="#526ade" stroke-width="1.449" stroke-linecap="round" stroke-linejoin="round"/>
        </g>
        <g style="display:inline">
            <path d="M958.609 134.179c.796-1.053.862-2.653 0-3.613-.853-.96-2.427-1.965-4.365.3.067-2.682-1.423-4.496-3.875-4.594-2.203-.082-3.271 1.219-4.77 2.518a2.877 2.877 0 0 0-1.284-.658 2.908 2.908 0 0 0-1.441.037 2.673 2.673 0 0 0-1.2.831c-.323.381-.53.842-.606 1.332a3.04 3.04 0 0 0-3.205-1.037 3.637 3.637 0 0 0-1.514.933c-.414.43-.721.958-.887 1.535-1.697 5.82 8.241 4.468 11.313 4.24 2.824-.203 5.739.232 8.513-.078a4.867 4.867 0 0 0 3.264-1.605c.015-.046.04-.093.057-.141z" fill="#fff"/>
            <path d="M958.609 134.179c.796-1.053.862-2.653 0-3.613-.853-.96-2.427-1.965-4.365.3.067-2.682-1.423-4.496-3.875-4.594-2.203-.082-3.271 1.219-4.77 2.518a2.877 2.877 0 0 0-1.284-.658 2.908 2.908 0 0 0-1.441.037 2.673 2.673 0 0 0-1.2.831c-.323.381-.53.842-.606 1.332a3.04 3.04 0 0 0-3.205-1.037 3.637 3.637 0 0 0-1.514.933c-.414.43-.721.958-.887 1.535-1.697 5.82 8.241 4.468 11.313 4.24 2.824-.203 5.739.232 8.513-.078a4.867 4.867 0 0 0 3.264-1.605c.015-.046.04-.093.057-.141z" stroke="#526ade" stroke-width="1.449" stroke-linecap="round" stroke-linejoin="round"/>
        </g>
        <g style="display:inline">
            <path d="M1028.3 179.868a4.85 4.85 0 0 0 3.26 1.605c2.77.311 5.69-.126 8.51.078 2.74.198 5.63.635 8.35-.01 3.04-.724 4.71-4.753.99-6.255-1.09-.44-2.45-.107-3.22.791-.24-3.217-2.97-6.067-6.17-6.46-2.12-.26-4.3.573-5.81 2.047-1.62 1.567-1.36 2.695-1.64 4.676-1.32-1.415-2.97-1.755-4.33-.226-.86.96-.8 2.561 0 3.614.01.048.04.094.06.14z" fill="#fff"/>
            <path d="M1028.3 179.868a4.85 4.85 0 0 0 3.26 1.605c2.77.311 5.69-.126 8.51.078 2.74.198 5.63.635 8.35-.01 3.04-.724 4.71-4.753.99-6.255-1.09-.44-2.45-.107-3.22.791-.24-3.217-2.97-6.067-6.17-6.46-2.12-.26-4.3.573-5.81 2.047-1.62 1.567-1.36 2.695-1.64 4.676-1.32-1.415-2.97-1.755-4.33-.226-.86.96-.8 2.561 0 3.614.01.048.04.094.06.14z" stroke="#526ade" stroke-width="1.449" stroke-linecap="round" stroke-linejoin="round"/>
        </g>
        <path d="M474.396 88.54c2.051.694 4.263.674 6.426.65l27.506-.296c3.254-.034 6.959-.27 9.016-2.797 3.52-4.317-1.126-10.812-5.471-12.34a9.124 9.124 0 0 0-7.274.568c-1.79-3.463-5.776-5.616-9.636-5.471a13.757 13.757 0 0 0-7.497 2.541 8.435 8.435 0 0 0-2.304 2.727c-.15.285-1.28 2.866-.907 3.055-3.913-1.965-10.184-1.324-13.035 2.304-2.667 3.42-.655 7.784 3.176 9.059z" fill="#fff"/>
        <path d="M474.396 88.54c2.051.694 4.263.674 6.426.65l27.506-.296c3.254-.034 6.959-.27 9.016-2.797 3.52-4.317-1.126-10.812-5.471-12.34a9.124 9.124 0 0 0-7.274.568c-1.79-3.463-5.776-5.616-9.636-5.471a13.757 13.757 0 0 0-7.497 2.541 8.435 8.435 0 0 0-2.304 2.727c-.15.285-1.28 2.866-.907 3.055-3.913-1.965-10.184-1.324-13.035 2.304-2.667 3.42-.655 7.784 3.176 9.059z" stroke="#526ade" stroke-width="1.449" stroke-linecap="round" stroke-linejoin="round"/>
    </g>
</svg>
